<?xml version="1.0" standalone="no"?>
<!DOCTYPE svg PUBLIC "-//W3C//DTD SVG 20010904//EN"
 "http://www.w3.org/TR/2001/REC-SVG-20010904/DTD/svg10.dtd">
<svg version="1.0" xmlns="http://www.w3.org/2000/svg"
 width="200.000000pt" height="200.000000pt" viewBox="0 0 200.000000 200.000000"
 preserveAspectRatio="xMidYMid meet">
<metadata>
Created by potrace 1.11, written by Peter Selinger 2001-2013
</metadata>
<g transform="translate(0.000000,200.000000) scale(0.100000,-0.100000)"
fill="#000000" stroke="none">
<path d="M874 1655 c-101 -45 -185 -213 -153 -304 9 -24 5 -32 -26 -65 -97
-103 -149 -324 -113 -476 23 -96 85 -184 148 -210 26 -11 26 -11 28 -143 0
-73 3 -168 6 -212 l6 -80 -42 -42 c-23 -23 -43 -48 -45 -55 -1 -7 -5 -25 -9
-40 l-6 -28 58 0 c54 0 62 3 84 30 14 17 27 30 30 30 3 0 14 -13 23 -30 l18
-30 195 0 c208 0 203 -1 237 53 15 23 21 26 38 16 12 -6 28 -24 37 -40 16 -27
21 -29 80 -29 56 0 62 2 62 20 0 48 -73 150 -117 164 -14 4 -18 16 -18 53 0
103 -75 149 -260 162 -5 1 -11 29 -13 64 -1 34 -4 72 -6 83 -6 31 19 62 69 85
56 27 158 119 179 163 24 51 31 106 31 241 -1 227 -70 357 -210 396 -22 7 -52
12 -67 13 -37 2 -40 7 -43 68 -2 61 -25 111 -61 134 -33 22 -101 27 -140 9z"/>
</g>
</svg>
